<mxfile host="app.diagrams.net" agent="Mozilla/5.0 (X11; Linux x86_64; rv:131.0) Gecko/20100101 Firefox/131.0" version="24.8.0">
  <diagram name="Página-1" id="NkeaZ8I7aKWCHozaMILG">
    <mxGraphModel dx="558" dy="928" grid="1" gridSize="10" guides="1" tooltips="1" connect="1" arrows="1" fold="1" page="1" pageScale="1" pageWidth="827" pageHeight="1169" math="0" shadow="0">
      <root>
        <mxCell id="0" />
        <mxCell id="1" parent="0" />
        <mxCell id="3mtj0U9WEY9BWaKk8iqS-6" value="Sistema Imobiliária" style="swimlane;whiteSpace=wrap;html=1;" vertex="1" parent="1">
          <mxGeometry x="290" y="120" width="270" height="320" as="geometry" />
        </mxCell>
        <mxCell id="3mtj0U9WEY9BWaKk8iqS-7" value="&lt;div&gt;Cadastro de Clientes&lt;/div&gt;" style="rounded=0;whiteSpace=wrap;html=1;" vertex="1" parent="3mtj0U9WEY9BWaKk8iqS-6">
          <mxGeometry x="15" y="40" width="240" height="20" as="geometry" />
        </mxCell>
        <mxCell id="3mtj0U9WEY9BWaKk8iqS-8" value="&lt;div&gt;Cadastro de Imóveis&lt;/div&gt;" style="rounded=0;whiteSpace=wrap;html=1;" vertex="1" parent="3mtj0U9WEY9BWaKk8iqS-6">
          <mxGeometry x="15" y="80" width="240" height="20" as="geometry" />
        </mxCell>
        <mxCell id="3mtj0U9WEY9BWaKk8iqS-9" value="Busca Automática de Imóveis" style="rounded=0;whiteSpace=wrap;html=1;" vertex="1" parent="3mtj0U9WEY9BWaKk8iqS-6">
          <mxGeometry x="15" y="120" width="240" height="20" as="geometry" />
        </mxCell>
        <mxCell id="3mtj0U9WEY9BWaKk8iqS-10" value="Busca Automática de Clientes" style="rounded=0;whiteSpace=wrap;html=1;" vertex="1" parent="3mtj0U9WEY9BWaKk8iqS-6">
          <mxGeometry x="15" y="160" width="240" height="20" as="geometry" />
        </mxCell>
        <mxCell id="3mtj0U9WEY9BWaKk8iqS-11" value="Notificação para Corretores" style="rounded=0;whiteSpace=wrap;html=1;" vertex="1" parent="3mtj0U9WEY9BWaKk8iqS-6">
          <mxGeometry x="15" y="200" width="240" height="20" as="geometry" />
        </mxCell>
        <mxCell id="3mtj0U9WEY9BWaKk8iqS-12" value="Mensagens via WhatsApp " style="rounded=0;whiteSpace=wrap;html=1;" vertex="1" parent="3mtj0U9WEY9BWaKk8iqS-6">
          <mxGeometry x="15" y="240" width="240" height="20" as="geometry" />
        </mxCell>
        <mxCell id="3mtj0U9WEY9BWaKk8iqS-13" value="Acesso via Web e Mobile " style="rounded=0;whiteSpace=wrap;html=1;" vertex="1" parent="3mtj0U9WEY9BWaKk8iqS-6">
          <mxGeometry x="15" y="280" width="240" height="20" as="geometry" />
        </mxCell>
        <mxCell id="3mtj0U9WEY9BWaKk8iqS-28" style="edgeStyle=orthogonalEdgeStyle;rounded=0;orthogonalLoop=1;jettySize=auto;html=1;exitX=0.5;exitY=0;exitDx=0;exitDy=0;" edge="1" parent="1" source="3mtj0U9WEY9BWaKk8iqS-14">
          <mxGeometry relative="1" as="geometry">
            <mxPoint x="305" y="440" as="targetPoint" />
          </mxGeometry>
        </mxCell>
        <mxCell id="3mtj0U9WEY9BWaKk8iqS-14" value="&lt;div&gt;Cliente&lt;/div&gt;" style="swimlane;whiteSpace=wrap;html=1;" vertex="1" parent="1">
          <mxGeometry x="210" y="560" width="190" height="120" as="geometry" />
        </mxCell>
        <mxCell id="3mtj0U9WEY9BWaKk8iqS-23" value="- Cadastrar-se" style="text;html=1;align=center;verticalAlign=middle;whiteSpace=wrap;rounded=0;" vertex="1" parent="3mtj0U9WEY9BWaKk8iqS-14">
          <mxGeometry x="48.75" y="30" width="92.5" height="30" as="geometry" />
        </mxCell>
        <mxCell id="3mtj0U9WEY9BWaKk8iqS-24" value="- Procurar Imóveis" style="text;html=1;align=center;verticalAlign=middle;whiteSpace=wrap;rounded=0;" vertex="1" parent="3mtj0U9WEY9BWaKk8iqS-14">
          <mxGeometry x="37.5" y="80" width="115" height="30" as="geometry" />
        </mxCell>
        <mxCell id="3mtj0U9WEY9BWaKk8iqS-29" style="edgeStyle=orthogonalEdgeStyle;rounded=0;orthogonalLoop=1;jettySize=auto;html=1;exitX=0.5;exitY=0;exitDx=0;exitDy=0;" edge="1" parent="1" source="3mtj0U9WEY9BWaKk8iqS-25">
          <mxGeometry relative="1" as="geometry">
            <mxPoint x="535" y="440" as="targetPoint" />
          </mxGeometry>
        </mxCell>
        <mxCell id="3mtj0U9WEY9BWaKk8iqS-25" value="Corretor" style="swimlane;whiteSpace=wrap;html=1;" vertex="1" parent="1">
          <mxGeometry x="440" y="560" width="190" height="120" as="geometry" />
        </mxCell>
        <mxCell id="3mtj0U9WEY9BWaKk8iqS-26" value="- Cadastrar Imóveis" style="text;html=1;align=center;verticalAlign=middle;whiteSpace=wrap;rounded=0;" vertex="1" parent="3mtj0U9WEY9BWaKk8iqS-25">
          <mxGeometry x="40" y="30" width="110" height="30" as="geometry" />
        </mxCell>
        <mxCell id="3mtj0U9WEY9BWaKk8iqS-27" value="- Gerenciar Clientes" style="text;html=1;align=center;verticalAlign=middle;whiteSpace=wrap;rounded=0;" vertex="1" parent="3mtj0U9WEY9BWaKk8iqS-25">
          <mxGeometry x="37.5" y="80" width="115" height="30" as="geometry" />
        </mxCell>
        <mxCell id="3mtj0U9WEY9BWaKk8iqS-32" style="edgeStyle=orthogonalEdgeStyle;rounded=0;orthogonalLoop=1;jettySize=auto;html=1;entryX=1;entryY=0.25;entryDx=0;entryDy=0;" edge="1" parent="1" source="3mtj0U9WEY9BWaKk8iqS-30" target="3mtj0U9WEY9BWaKk8iqS-7">
          <mxGeometry relative="1" as="geometry" />
        </mxCell>
        <mxCell id="3mtj0U9WEY9BWaKk8iqS-30" value="N clientes" style="text;html=1;align=center;verticalAlign=middle;resizable=0;points=[];autosize=1;strokeColor=none;fillColor=none;" vertex="1" parent="1">
          <mxGeometry x="590" y="150" width="80" height="30" as="geometry" />
        </mxCell>
        <mxCell id="3mtj0U9WEY9BWaKk8iqS-34" style="edgeStyle=orthogonalEdgeStyle;rounded=0;orthogonalLoop=1;jettySize=auto;html=1;entryX=1;entryY=0.25;entryDx=0;entryDy=0;" edge="1" parent="1" source="3mtj0U9WEY9BWaKk8iqS-33" target="3mtj0U9WEY9BWaKk8iqS-8">
          <mxGeometry relative="1" as="geometry" />
        </mxCell>
        <mxCell id="3mtj0U9WEY9BWaKk8iqS-33" value="1 corretor, N imóveis" style="text;html=1;align=center;verticalAlign=middle;resizable=0;points=[];autosize=1;strokeColor=none;fillColor=none;" vertex="1" parent="1">
          <mxGeometry x="590" y="190" width="130" height="30" as="geometry" />
        </mxCell>
        <mxCell id="3mtj0U9WEY9BWaKk8iqS-37" style="edgeStyle=orthogonalEdgeStyle;rounded=0;orthogonalLoop=1;jettySize=auto;html=1;entryX=1;entryY=0.25;entryDx=0;entryDy=0;" edge="1" parent="1" source="3mtj0U9WEY9BWaKk8iqS-35" target="3mtj0U9WEY9BWaKk8iqS-11">
          <mxGeometry relative="1" as="geometry" />
        </mxCell>
        <mxCell id="3mtj0U9WEY9BWaKk8iqS-35" value="1 corretor" style="text;html=1;align=center;verticalAlign=middle;resizable=0;points=[];autosize=1;strokeColor=none;fillColor=none;" vertex="1" parent="1">
          <mxGeometry x="590" y="310" width="70" height="30" as="geometry" />
        </mxCell>
        <mxCell id="3mtj0U9WEY9BWaKk8iqS-40" style="edgeStyle=orthogonalEdgeStyle;rounded=0;orthogonalLoop=1;jettySize=auto;html=1;entryX=1;entryY=0.5;entryDx=0;entryDy=0;" edge="1" parent="1" source="3mtj0U9WEY9BWaKk8iqS-38" target="3mtj0U9WEY9BWaKk8iqS-26">
          <mxGeometry relative="1" as="geometry" />
        </mxCell>
        <mxCell id="3mtj0U9WEY9BWaKk8iqS-38" value="N corretores" style="text;html=1;align=center;verticalAlign=middle;resizable=0;points=[];autosize=1;strokeColor=none;fillColor=none;" vertex="1" parent="1">
          <mxGeometry x="660" y="590" width="90" height="30" as="geometry" />
        </mxCell>
        <mxCell id="3mtj0U9WEY9BWaKk8iqS-42" style="edgeStyle=orthogonalEdgeStyle;rounded=0;orthogonalLoop=1;jettySize=auto;html=1;entryX=1;entryY=0.5;entryDx=0;entryDy=0;" edge="1" parent="1" source="3mtj0U9WEY9BWaKk8iqS-41" target="3mtj0U9WEY9BWaKk8iqS-27">
          <mxGeometry relative="1" as="geometry" />
        </mxCell>
        <mxCell id="3mtj0U9WEY9BWaKk8iqS-41" value="N clientes" style="text;html=1;align=center;verticalAlign=middle;resizable=0;points=[];autosize=1;strokeColor=none;fillColor=none;" vertex="1" parent="1">
          <mxGeometry x="660" y="640" width="80" height="30" as="geometry" />
        </mxCell>
      </root>
    </mxGraphModel>
  </diagram>
</mxfile>
